<svg xmlns="http://www.w3.org/2000/svg" width="48" height="48" viewBox="0 0 48 48">
  <g id="Group_159275" data-name="Group 159275" transform="translate(8223 6438)">
    <circle id="Ellipse_1185" data-name="Ellipse 1185" cx="24" cy="24" r="24" transform="translate(-8223 -6438)" fill="#fff"/>
    <g id="Group_156557" data-name="Group 156557" transform="translate(-8210 -6426.025)">
      <path id="Path_67857" data-name="Path 67857" d="M15.806,5.495a5.5,5.5,0,1,1-.419-2.1A5.5,5.5,0,0,1,15.806,5.495ZM10.316,1.1A4.395,4.395,0,1,0,12,1.44,4.39,4.39,0,0,0,10.316,1.1Z" transform="translate(0.218 0)" fill="#fdd031" stroke="#fdd031" stroke-width="0.2" fill-rule="evenodd"/>
      <path id="Path_67858" data-name="Path 67858" d="M5.412,22.763H1.788A1.643,1.643,0,0,1,.007,20.975c0-1.254.008-2.509,0-3.763A1.634,1.634,0,0,1,.98,15.623a20.461,20.461,0,0,1,8.257-2.276,1.007,1.007,0,0,1,.369.034.535.535,0,0,1,.338.579.554.554,0,0,1-.514.467c-.852.1-1.709.175-2.554.321A18.7,18.7,0,0,0,1.4,16.643a.513.513,0,0,0-.3.493v3.919c0,.409.233.609.681.609H9.324a.548.548,0,1,1,.016,1.088C8.025,22.764,6.719,22.762,5.412,22.763Z" transform="translate(0 0.604)" fill="#fdd031" stroke="#fdd031" stroke-width="0.2" fill-rule="evenodd"/>
      <path id="Path_67859" data-name="Path 67859" d="M12.422,17.224c0-1.191-.007-2.38,0-3.571a2.628,2.628,0,0,1,2.133-2.68,4.037,4.037,0,0,1,.774-.052c.679,0,1.359-.01,2.039.017a2.46,2.46,0,0,1,1.742.836.552.552,0,0,1,.008.792.541.541,0,0,1-.79-.031,1.724,1.724,0,0,0-1.359-.523c-.617.014-1.234,0-1.852,0a1.542,1.542,0,0,0-1.6,1.611v7.222a1.528,1.528,0,0,0,1.551,1.6c.689.017,1.378,0,2.068,0a1.58,1.58,0,0,0,1.15-.483.545.545,0,0,1,.828-.065.575.575,0,0,1-.065.853,2.366,2.366,0,0,1-1.608.772,21.074,21.074,0,0,1-2.84-.038,2.488,2.488,0,0,1-2.163-2.353c-.044-1.3-.01-2.613-.01-3.919Z" transform="translate(0.562 0.494)" fill="#fdd031" stroke="#fdd031" stroke-width="0.2" fill-rule="evenodd"/>
      <path id="Path_67860" data-name="Path 67860" d="M20.367,17.631h-4.4a2.57,2.57,0,0,1-.295-.009.545.545,0,0,1-.5-.539.557.557,0,0,1,.5-.542,2.375,2.375,0,0,1,.269-.005h4.47c-.062-.077-.1-.132-.142-.178-.347-.349-.7-.694-1.045-1.045A.551.551,0,1,1,20,14.533q1.08,1.065,2.149,2.141a.553.553,0,0,1-.007.836q-1.054,1.054-2.112,2.1a.556.556,0,0,1-.936-.6.56.56,0,0,1,.157-.182c.378-.378.764-.749,1.15-1.124Z" transform="translate(0.687 0.649)" fill="#fdd031" stroke="#fdd031" stroke-width="0.2" fill-rule="evenodd"/>
    </g>
  </g>
</svg>
